<?xml version="1.0" encoding="UTF-8" standalone="no"?>
<svg
   xmlns:dc="http://purl.org/dc/elements/1.1/"
   xmlns:cc="http://creativecommons.org/ns#"
   xmlns:rdf="http://www.w3.org/1999/02/22-rdf-syntax-ns#"
   xmlns:svg="http://www.w3.org/2000/svg"
   xmlns="http://www.w3.org/2000/svg"
   id="svg910"
   version="1.1"
   viewBox="0 0 1225.0656 594.44235"
   height="594.44232"
   width="1225.0656">
  <defs
     id="defs904" />
  <metadata
     id="metadata907">
    <rdf:RDF>
      <cc:Work
         rdf:about="">
        <dc:format>image/svg+xml</dc:format>
        <dc:type
           rdf:resource="http://purl.org/dc/dcmitype/StillImage" />
        <dc:title></dc:title>
      </cc:Work>
    </rdf:RDF>
  </metadata>
  <g
     transform="translate(395.25895,169.46522)"
     id="layer1">
    <path
       id="path3995"
       style="font-size:71.9822px;line-height:1.25;font-family:'MARIO Font v3';-inkscape-font-specification:'MARIO Font v3';letter-spacing:0px;word-spacing:0px;opacity:0.999;fill:#0b0b0b;fill-opacity:1;stroke-width:2.87191"
       d="m 150.20847,-169.46522 -181.597019,360.34047 -3.306504,48.65402 37.4059563,-33.79511 54.8171807,7.69866 152.682876,-124.323728 8.98229,-7.311701 47.60131,47.601329 39.90425,58.96479 110.64185,-104.157898 93.27278,98.836098 -29.59032,26.18336 16.30587,28.24232 205.07684,-406.93261 z M 216.90642,97.326606 54.675912,229.42834 l -36.743154,93.22779 51.549611,38.38821 94.325421,-20.83909 54.84115,-66.90489 12.61255,-60.87222 -37.29205,-9.87147 57.03503,-54.8411 z m 199.77153,2.060335 -158.88963,149.578909 -9.08416,46.1288 72.12626,-2.30629 -28.69515,51.16569 58.94234,1.55203 31.40934,-54.68812 43.73706,-1.39756 27.55097,-48.93145 -45.85582,1.98387 24.5923,-35.79244 -48.86087,-1.16365 -30.43316,39.32239 -31.37335,1.35556 126.17859,-111.64063 z m -613.80442,94.943259 -91.6923,14.88891 -67.84356,68.64882 79.71994,43.91399 -26.5673,23.9866 -40.95543,-31.78271 -50.79383,49.6272 48.34959,43.28413 76.08958,-7.14675 76.06854,-91.29787 -65.51779,-40.23259 22.84243,-22.33264 42.1595,35.01422 50.36352,-53.2111 z m 108.391063,8.58034 -139.208093,167.08301 56.05572,31.8502 69.20518,-95.82199 8.214484,47.50685 56.240107,-38.32967 -40.527997,98.25118 78.55632453,-6.47798 L 18.800918,340.01626 5.0966767,326.31202 45.776141,223.09134 5.6965052,217.21611 -48.174362,267.96198 -40.765171,210.1983 Z m 858.272587,11.24499 -84.50494,17.25371 -62.06589,63.36144 67.81513,44.90373 -29.93835,22.45559 -49.07683,-41.82066 -25.87158,58.93035 32.79801,37.35198 84.60388,-8.00902 69.52301,-74.51951 -70.67468,-52.01599 26.02,-17.33464 58.26756,42.1775 43.37408,-59.4747 z m -131.59643,5.22142 -78.07494,2.12639 -43.77906,115.73434 -38.22925,22.33559 9.3032,-39.52483 -57.54329,3.22398 -14.673,21.27399 0.38228,61.5845 61.30716,18.84622 92.74638,-50.05312 z m -491.57563,13.66231 1.91942,34.27498 -39.21138,33.45311 -20.290289,-32.08104 28.516759,-31.25942 z M 27.919659,349.13496 8.1482215,418.40762 H 112.44256 L 52.698005,373.91337 Z" />
  </g>
</svg>
